<?xml version="1.0" encoding="UTF-8"?>
<svg width="424px" height="328px" viewBox="0 0 424 328" version="1.1" xmlns="http://www.w3.org/2000/svg" xmlns:xlink="http://www.w3.org/1999/xlink">
    <!-- Generator: Sketch 46.2 (44496) - http://www.bohemiancoding.com/sketch -->
    <title>Beacon White</title>
    <desc>Created with Sketch.</desc>
    <defs></defs>
    <g id="Logos" stroke="none" stroke-width="1" fill="none" fill-rule="evenodd">
        <g id="Beacon-Only" transform="translate(-348.000000, -414.000000)" fill="#FFFFFF">
            <g id="Beacon-White" transform="translate(348.000000, 414.000000)">
                <g id="Group-32">
                    <path d="M211.760072,316.254444 C110.692626,316.254444 28.4413669,243.773611 28.4413669,161.166667 C28.4413669,78.52 110.692626,11.2977778 211.760072,11.2977778 C312.879496,11.2977778 395.10018,78.52 395.10018,161.166667 C395.10018,243.773611 312.879496,316.254444 211.760072,316.254444 Z M211.753957,0.322222222 C95.0043165,0.322222222 0,72.3752778 0,160.974167 C0,249.536389 95.0043165,327.226944 211.753957,327.226944 C328.525,327.226944 423.495683,249.536389 423.495683,160.974167 C423.495683,72.3752778 328.525,0.322222222 211.753957,0.322222222 L211.753957,0.322222222 Z" id="Fill-31"></path>
                </g>
                <path d="M62.4566547,72.305 C63.2455036,72.8611111 65.2726619,74.3063889 65.2726619,74.3063889 C65.5508993,74.505 78.3039568,85.0588889 80.181295,86.6416667 C79.8755396,87.4513889 74.628777,101.989722 74.628777,101.989722 C69.8131295,114.095833 64.9883094,126.290556 64.7100719,135.894167 L64.7956835,137.443333 C64.8354317,137.663333 68.9661871,159.235556 68.9661871,159.235556 L69.3055755,160.842778 C71.6354317,172.166667 74.2496403,185.061111 75.3595324,194.334722 C75.6163669,196.950278 76.2401079,198.536111 77.2613309,199.159444 C83.5568345,205.7075 93.842446,218.996111 106.259173,244.360278 C106.629137,245.020278 106.806475,245.429722 107.002158,245.716944 C108.182374,249.209444 109.683633,251.546944 111.478417,252.689722 C113.753237,254.089167 118.061331,254.174722 120.868165,252.689722 C127.23705,248.534167 131.731655,242.691944 134.489568,235.642778 C135.455755,236.819167 138.097482,240.256667 138.516367,240.7425 C127.827158,259.246944 146.735072,266.115833 153.44946,263.472778 C149.566367,274.686667 163.897122,283.715833 177.383993,277.705556 C179.135971,284.980833 184.911691,287.104444 190.409173,288.167778 C195.879137,289.258611 203.327338,289.845278 215.471942,288.7575 C233.743885,287.260278 250.361691,281.680833 257.030216,278.225 C271.119424,271.050556 278.81223,261.896111 283.340468,255.500833 C283.410791,255.345 284.233273,254.358056 284.768345,253.621667 C286.260432,256.267778 287.825899,258.748889 289.599281,260.637222 C294.1,265.031111 298.328597,266.998889 301.76223,266.366389 C304.214388,265.920278 306.134532,264.398611 307.427878,261.593611 C313.686691,246.520556 327.366187,227.951944 338.079856,215.509722 C338.079856,215.473056 339.098022,213.520556 339.098022,213.520556 C341.43705,204.683889 349.768885,182.8 354.205396,170.984167 L357.366906,162.474444 C357.366906,162.428611 357.98759,160.427222 357.98759,160.427222 C358.207734,157.038611 358.314748,153.643889 358.314748,150.301111 C358.314748,135.090556 356.110252,120.555278 351.930576,108.2475 C349.894245,102.020278 347.815108,98.2497222 345.852158,94.5769444 L343.595683,90.4519444 C346.647122,85.9144444 355.523201,79.9438889 362.644245,75.1375 C362.644245,75.1375 363.053957,74.8930556 363.206835,74.8197222 L354.465288,65.2588889 C353.924101,65.6225 348.359353,69.4755556 348.359353,69.4755556 C341.99964,73.8052778 335.569604,75.5622222 331.585612,73.9641667 C331.001619,73.7441667 325.724281,70.7619444 325.724281,70.7619444 C325.415468,70.545 324.482914,70.105 324.482914,70.105 C324.29946,70.0713889 322.691187,69.8544444 322.691187,69.8544444 C322.477158,69.8697222 320.722122,70.2455556 320.722122,70.2455556 L319.572482,70.5236111 L321.367266,72.5983333 C325.088309,77.0166667 327.020683,80.8238889 329.717446,85.9694444 C329.790827,86.0947222 331.325719,88.9913889 331.325719,88.9913889 C331.325719,89.0036111 332.860612,92.5755556 332.860612,92.5755556 L333.17554,93.3180556 L335.181295,98.5033333 L335.551259,99.5941667 L336.639748,102.594722 L340.846942,117.383611 C344.427338,132.438333 346.243525,144.853056 346.332194,155.446667 C346.332194,155.6025 346.173201,156.662778 346.173201,156.662778 C346.154856,156.723889 341.219964,170.602222 341.219964,170.602222 C336.119964,185.018333 329.717446,202.963611 328.280396,210.348889 L327.97464,211.222778 C314.298201,225.464722 304.602698,242.264167 300.484173,252.301667 C299.835971,253.621667 299.386511,253.805 299.209173,253.835556 C298.582374,253.948611 296.983273,252.478889 296.121043,251.702778 C292.690468,248.613611 290.635791,242.196944 290.892626,235.392222 C291.225899,227.065833 294.81241,219.653056 300.792986,214.978056 C301.76223,214.244722 301.395324,212.869722 301.178237,212.075278 C299.511871,202.596944 302.193345,188.083056 308.042446,183.976389 L309.555935,182.873333 L308.079137,181.758056 C291.323741,168.784167 283.135612,144.785833 282.435432,126.880278 L282.346763,124.533611 L279.750899,125.633611 C279.448201,125.881111 278.460612,127.399722 278.460612,127.399722 C277.80018,130.886111 277.521942,134.436667 277.521942,137.855833 C277.521942,147.05 279.301439,155.083056 280.013849,157.952222 C282.346763,167.836944 287.244964,176.991389 294.405755,185.223056 C294.405755,185.223056 294.558633,185.403333 294.705396,185.595833 C291.589748,189.51 290.207734,199.031111 290.207734,206.379722 C290.207734,208.631667 290.314748,210.568889 290.592986,212.157778 C282.76259,218.898333 280.591727,227.484444 280.160612,233.583333 C280.160612,233.583333 280.420504,240.048889 280.420504,240.134444 C280.334892,239.978611 276.613849,244.965278 276.613849,244.965278 L275.873921,246.0225 C268.431835,256.273889 263.221763,263.411667 250.768345,269.797778 C237.208094,276.834722 210.946763,281.680833 193.894784,280.009444 C187.617626,279.312778 188.308633,273.690556 188.308633,273.409444 C188.308633,272.639444 188.592986,271.832778 189.152518,271.087222 C189.152518,271.087222 190.409173,269.739722 190.776079,269.333333 C206.907734,271.160556 222.290288,269.195833 228.686691,265.819444 C228.952698,265.562778 230.930935,262.644722 230.930935,262.644722 L231.704496,261.269722 L230.145144,261.624167 C216.425899,265.067778 189.170863,260.5425 174.754496,254.428333 C158.723741,247.574722 153.831655,241.103056 140.736151,223.823889 L137.082374,219.020556 C136.972302,214.208056 135.654496,209.2825 133.315468,205.117778 C131.126259,201.221944 128.22464,198.765278 127.36241,198.09 C128.346942,195.184167 128.921763,191.138611 128.921763,186.876111 C128.921763,181.0675 127.860791,175.194722 125.830576,171.946667 C135.571942,164.332222 140.519065,156.513056 140.37536,147.532778 C140.292806,143.279444 137.950719,136.795556 137.950719,136.795556 L134.205216,135.063056 L134.465108,137.525833 C135.954137,152.708889 121.800719,162.556944 112.423201,169.123333 C112.423201,169.144722 109.683633,171.008611 109.683633,171.008611 L111.478417,172.126944 C118.831835,176.713333 118.926619,192.140833 117.260252,200.809444 L117.17464,201.310556 L117.56295,202.025556 L117.991007,202.239444 C117.929856,202.224167 121.522482,205.093333 121.522482,205.093333 C128.921763,215.026944 128.319424,230.399444 120.183273,239.462222 C118.532194,241.1825 117.648561,241.396389 117.189928,241.341389 C115.982194,241.081667 115.009892,238.255278 114.746942,237.314167 C114.679676,237.201111 112.450719,232.562778 112.450719,232.562778 C106.048201,219.249722 100.682194,208.060278 88.228777,193.201111 C88.228777,193.173611 87.9077338,192.003333 87.9077338,192.003333 C85.480036,172.539444 82.4591727,158.120278 79.5116906,144.223611 L77.8881295,136.673333 C77.8881295,136.633611 77.6955036,134.708611 77.6955036,134.708611 C78.5821942,119.928889 83.1654676,108.311667 88.5345324,94.8641667 L91.7847122,86.4644444 L94.4661871,80.0355556 C94.5120504,80.0355556 94.946223,79.0913889 94.946223,79.0913889 C98.0985612,74.5936111 102.330216,70.325 107.473022,66.3925 L109.772302,64.6722222 L106.782014,63.4316667 C106.782014,63.4316667 100.960432,64.0641667 95.1419065,66.9394444 L94.0992806,67.4344444 C89.8339928,69.4327778 84.9205036,70.985 81.2239209,69.5305556 C81.2239209,69.5305556 71.4183453,63.6822222 70.9169065,63.4072222 L62.4566547,72.305 Z M154.807014,255.986667 C144.530576,258.806944 140.736151,251.5775 143.160791,245.707778 C145.111511,247.968889 152.379317,254.480278 154.807014,255.986667 Z M180.689209,267.441944 C165.609353,275.111389 157.27446,268.4625 160.928237,260.386667 C165.847842,263.686667 173.467266,266.0975 180.689209,267.441944 Z M136.868345,22.8416667 C137.430935,23.3825 139.179856,25.1669444 139.179856,25.1822222 L147.734892,32.9983333 C147.734892,33.0472222 152.617806,37.6183333 152.617806,37.6183333 C156.234892,41.0802778 157.084892,42.8555556 156.971763,43.5308333 C156.821942,44.1969444 156.152338,44.5208333 155.501079,44.8783333 C154.868165,45.2541667 153.853058,45.4925 153.853058,45.4925 L153.44946,48.7375 L155.458273,48.6458333 C166.73759,48.3769444 177.356475,56.0066667 184.239029,62.4905556 C196.169604,73.8572222 205.171043,92.2730556 207.185971,109.481944 L216.508453,157.952222 L220.018525,165.413889 L220.688129,166.9325 L222.223022,170.107222 C223.546942,173.260556 225.583273,176.059444 225.775899,176.248889 C225.992986,176.456667 230.600719,180.114167 230.600719,180.114167 L237.336511,186.995278 L239.326978,189.140278 L242.546583,192.354722 C242.806475,192.535 252.28795,193.757222 252.28795,193.757222 C268.817086,196.510278 268.110791,205.689167 268.110791,205.689167 C268.110791,205.689167 277.940827,190.606944 254.471043,185.3025 C254.471043,185.3025 247.07482,183.9 246.918885,183.9 C246.918885,183.9 246.918885,183.9 246.918885,183.875556 C246.918885,183.704444 244.277158,180.117222 244.277158,180.117222 C243.959173,179.781111 243.393525,179.136389 243.393525,179.136389 C243.243705,178.953056 236.229676,172.056667 236.229676,172.056667 L233.003957,168.998056 C233.003957,168.924722 230.07482,161.136111 230.07482,161.136111 L225.925719,151.083333 C224.867806,147.991111 224.173741,143.053333 223.235072,136.2425 C223.180036,135.976667 222.510432,131.329167 222.510432,131.329167 L219.431475,111.000556 C219.474281,110.6675 220.122482,107.013056 220.122482,107.013056 C221.470863,99.3986111 224.320504,90.9775 228.610252,81.9177778 C233.765288,71.0827778 244.430036,63.9175 244.558453,63.8716667 C252.501978,58.94 264.169604,56.2327778 270.42536,55.0441667 C272.801079,54.8058333 273.565468,53.4002778 273.996583,51.9825 L274.268705,51.1697222 L273.476799,51.0475 C270.01259,50.3966667 266.028597,49.2416667 265.704496,48.5969444 C265.646403,48.4716667 265.576079,48.1997222 265.576079,47.9736111 C265.576079,47.3533333 266.028597,46.4 266.869424,45.1288889 C266.915288,45.1288889 271.963309,40.2369444 271.963309,40.2369444 L274.926079,37.3036111 C274.926079,37.3036111 287.348921,25.3044444 288.978597,23.7216667 L277.460791,19.8380556 C275.944245,21.4086111 264.707734,33.0380556 264.707734,33.0380556 C256.268885,42.0916667 246.747662,52.3155556 242.372302,54.1336111 C231.661691,58.5 220.688129,68.9561111 216.355576,78.9905556 C216.355576,79.0272222 214.453777,83.9497222 213.435612,86.6416667 C210.197662,77.3038889 206.140288,69.5580556 200.584712,62.8175 C194.52464,55.5636111 187.122302,50.14 177.916007,46.4 C172.919964,41.6577778 156.519245,26.6458333 147.615647,19.3552778 L136.868345,22.8416667 Z M207.421403,166.798056 C208.696403,162.184167 206.253417,157.652778 206.253417,157.652778 L205.015108,160.598333 C203.978597,163.140556 201.190108,166.049444 196.878957,168.826944 L195.600899,169.532778 L212.579496,193.787778 C212.579496,193.806111 213.591547,195.379722 213.591547,195.379722 L216.829496,199.758333 C217.269784,200.173889 223.929137,203.944444 223.929137,203.944444 L226.448561,205.359167 L234.104676,209.924167 L241.11259,214.599167 L241.635432,214.739722 L252.098381,215.415 C258.38777,215.943611 262.066007,218.284167 263.973921,219.6225 C270.57518,224.38 267.043705,231.511667 267.043705,231.511667 C267.043705,231.511667 275.873921,223.185278 270.076799,214.15 C267.896763,211.045556 264.903417,208.029722 256.100719,207.021389 C256.100719,207.021389 245.316727,205.533333 245.295324,205.533333 C245.295324,205.453889 239.495144,201.533611 239.495144,201.533611 L231.897122,196.828056 L229.931115,195.663889 L223.696763,192.953611 L207.421403,166.798056 Z M197.958273,218.0825 L199.065108,219.481944 C199.520683,219.866944 206.360432,222.595556 206.360432,222.595556 C210.934532,224.468611 217.205576,227.3225 220.104137,229.103889 L227.851978,233.656667 C228.460432,233.910278 236.440647,233.326667 241.681295,233.736111 C248.239748,234.255556 253.348921,236.7275 256.008993,240.571389 C259.595504,245.649722 255.229317,251.073333 255.229317,251.073333 C256.177158,250.596667 263.600899,245.888056 263.084173,238.362222 C262.585791,231.138889 256.351439,224.389167 233.19964,224.670278 C233.19964,224.612222 226.833813,220.918056 226.833813,220.918056 L224.971763,219.827222 L214.698381,214.5625 C214.698381,214.5625 206.360432,211.714722 206.320683,211.714722 L206.320683,211.699444 C206.320683,211.403056 204.348561,208.029722 204.348561,208.029722 C201.642626,203.131667 197.878777,198.31 194.634712,194.044444 L193.628777,192.834444 C193.628777,192.834444 187.941727,184.984722 187.272122,183.994722 C189.069964,180.114167 187.559532,174.537778 187.559532,174.537778 C187.559532,174.537778 186.59946,176.395556 185.018705,178.390833 C183.444065,180.395278 179.246043,183.728889 176.304676,185.320833 L174.742266,186.326111 L195.747662,214.978056 L197.958273,218.0825 Z M171.363669,230.124444 L174.999101,233.818611 C174.999101,233.846111 182.33723,237.919167 182.33723,237.919167 L189.28705,241.695833 L190.167626,242.190833 L195.261511,245.041667 L203.871583,249.747222 C204.388309,249.909167 205.433993,249.909167 205.433993,249.909167 L216.508453,249.209444 C222.874281,249.078056 230.276619,249.209444 235.251259,251.464444 C240.718165,254.275556 238.86223,259.353889 238.86223,259.353889 C238.86223,259.353889 244.521763,255.323611 243.451619,250.517222 C242.889029,246.459444 238.02446,241.103056 221.877518,240.158889 C216.789748,239.859444 209.170324,240.571389 209.170324,240.571389 C209.170324,240.571389 208.522122,240.571389 208.479317,240.571389 C208.479317,240.458333 201.239029,235.807778 201.239029,235.807778 L198.19982,234.081389 C197.783993,233.882778 188.183273,228.825833 188.183273,228.825833 C188.183273,228.825833 182.098741,226.448611 182.077338,226.424167 C182.077338,226.246944 176.622662,218.641667 176.622662,218.641667 L174.626079,215.821389 C174.610791,215.809167 168.832014,207.461389 168.832014,207.461389 L166.346223,203.819167 C166.193345,203.614444 163.010432,198.688889 163.010432,198.688889 C163.273381,198.765278 166.318705,194.117778 165.970144,189.155556 C165.545144,189.821667 165.224101,189.995833 162.973741,191.923889 C160.680576,193.787778 153.880576,196.828056 149.333993,198.022778 L147.300719,198.566667 L163.502698,219.827222 L171.363669,230.124444 L171.363669,230.124444 Z" id="Fill-33"></path>
                <path d="M409.632858,273.607688 L407.517975,273.607688 L407.517975,278.387925 L409.513666,278.387925 C411.341267,278.387925 412.475113,277.642159 412.475113,276.000863 C412.475113,274.426808 411.469627,273.607688 409.632858,273.607688 L409.632858,273.607688 Z M413.932915,287.523557 L409.088856,280.597715 L407.517975,280.597715 L407.517975,287.275987 L404.724619,287.275987 L404.724619,271.095313 L409.632858,271.095313 C413.040508,271.095313 415.305144,272.779399 415.305144,275.811365 C415.305144,278.137299 414.055162,279.650225 412.031966,280.282904 L416.698766,286.893935 L413.932915,287.523557 Z M409.706206,266.749087 C402.900074,266.749087 397.49062,271.404011 397.49062,279.723579 C397.49062,287.957568 402.900074,292.618605 409.706206,292.618605 C416.573462,292.618605 421.985972,287.957568 421.985972,279.723579 C421.985972,271.404011 416.512338,266.749087 409.706206,266.749087 L409.706206,266.749087 Z M409.706206,294.327142 C401.28335,294.327142 395.412412,288.458821 395.412412,279.723579 C395.412412,271.021959 401.390317,265.034437 409.706206,265.034437 C418.153511,265.034437 424,270.957774 424,279.723579 C424,288.416031 418.015983,294.327142 409.706206,294.327142 L409.706206,294.327142 Z" id="Beacon"></path>
            </g>
        </g>
    </g>
</svg>